<svg xmlns="http://www.w3.org/2000/svg" width="522" height="477" fill="none"><path stroke="#121A2C" stroke-linecap="round" stroke-width="6" d="M173.458 18.906c-9.41-7.943-23.457 2.298-31.338 8.082C125.544 39.155 120 56.388 120 79.051c0 63.408 39.738 119.326 62.265 173.54 15.459 37.204 36.616 69.814 53.458 106.026 6.435 13.836 13.204 25.422 22.53 36.848 5.78 7.081 8.93 16.783 14.747 23.535"/><path stroke="#121A2C" stroke-linecap="round" stroke-width="6" d="M173 21c.323 3.003 5.397 4.372 7.343 6.395 4.074 4.232 6.558 7.436 10.199 12.67 10.958 15.753 25.169 27.598 34.779 44.764 10.594 18.925 22.897 35.994 37.634 50.803C276.082 148.821 285.657 166.987 296 183M294.894 183c2.498 2.914 6.096 7.057 7.754 10.71 8.121 17.891 15.082 35.318 24.385 52.599 19.929 37.017 38.622 76.58 48.668 118.763 3.951 16.587 8.189 34.127 12.856 50.457 3.023 10.576 8.923 24.574 5.305 36.176-3.39 10.877-27.699 18.3-35.608 20.35-13.109 3.397-26.409 2.642-37.649-4.641-7.893-5.115-12.949-14.628-19.283-22.016-14.569-16.993-32.308-29.31-41.322-50.337M93.812 412.626v3.424"/><path stroke="#121A2C" stroke-linecap="round" stroke-width="6" d="M94 409c.767-7.436 8.517-17.563 11.983-23.711 9.345-16.574 19.595-32.554 29.497-48.744 16.414-26.839 30.929-54.497 47.01-81.719 18.674-31.613 38.118-62.692 56.33-94.622 5.113-8.965 9.384-18.493 15.568-26.688 15.043-19.937 29.107-39.724 46.088-58.008C321.41 52.965 344.049 32.558 365 10M363 13.462c15.084-16.196 45.302-12.994 57.231 5.506C428.953 32.495 428.595 51.246 435 65M95.876 407c-.315 2.682-3.2 4.028-3.798 6.894-.865 4.15-1.636 8.886-3.182 12.802-4.217 10.677 7.445 33.979 14.37 41.362 13.277 14.154 37.824-.464 51.734-7.878M153 464.289c.425 3.2 9.566-5.403 10.455-6.062 29.022-21.525 56.396-48.905 81.588-75.394 24.2-25.446 44.42-55.257 62.934-85.645 11.044-18.128 18.771-38.481 29.109-57.097 4.304-7.749 7.101-16.843 10.762-25.021 6.099-13.622 15.572-25.486 21.73-39.24 7.353-16.424 16.734-31.186 21.422-48.83"/><path stroke="#121A2C" stroke-linecap="round" stroke-width="6" d="M389 137c0-15.293 9.596-31.939 17.855-44 7.543-11.016 11.933-23.155 18.464-34.778C428.017 53.42 428.191 47.614 431 43M25 206c.572-5.345 35.682-8.13 41.118-9.012 33.915-5.507 68.21-8.332 102.415-9.124 62.25-1.441 124.26-3.894 186.555-3.894 48.014 0 101.235-5.576 147.912 10.013M25.668 206c-.597 5.545-12.054 17.128-15.115 22-5.02 7.988-9.912 30.56-6.314 40.111 3.062 8.128 6.046 11.437 11.958 16.778C22.438 290.527 30.276 289.568 36 294M37.579 293.864c-22.803 2.988 45.805-3.243 68.698-5.043 64.816-5.096 130.61-4.818 195.546-4.818 43.322 0 84.964 11.105 127.609 17.481 13.89 2.076 29.103 3.223 42.568 8.516M506.502 194c-7.909 0-1.603 3.318 0 7.966 2.592 7.513 7.495 15.807 8.492 23.899 2.469 20.041 7.573 43.227.096 62.734-9.263 24.167-30.612 18.92-48.09 18.92M251.335 218c-13.192 0-16.003 22.2-11.033 30.721 3.521 6.034 20.362 10.209 24.729 2.567 3.382-5.918 12.541-19.035 5.136-26.44-4.428-4.428-18.708-8.808-22.256-1.712"/><path stroke="#121A2C" stroke-linecap="round" stroke-width="6" d="M245.617 224.217c-1.164.146-1.682 6.1-1.742 7.419-.048 1.074 0-2.15 0-3.226 0-3.556-.239 1.325-.322 2.097-.149 1.383-.341 3.103-.548 4.484-.142.947-.022 3.404-.742 2.774-.893-.781.729-6.24.903-7.355.278-1.778 1.472-3.094 1.838-4.741.243-1.092.917-2.212.581-3.387-.593-2.077-2.038 3.829-2.742 5.87-.836 2.427-1.673 10-.58 7.678.386-.822 1.073-3.766.322-4.516-1.274-1.274-1.166 6.295-1.032 7.064.593 3.41.911-3.836.452-4.871-.307-.69-.453 1.472-.42 2.226.096 2.157-.33 6.467.871 8.354.294.462.839-7.32.839-8.451 0-3.655-.652 7.73 1.161 10.903.431.754-.307-5.29-2.064-5.29-.407 0 1.789 8.047 3.483 8.774.691.296-1.377-5.271-1.967-5.936-2.466-2.773.463 1.552 1 2.387 2.376 3.696 2.43-8.064 2.451-8.58.17-4.083.488-8.172.581-12.258.027-1.182 0 2.366 0 3.549v11.322c0 3.546-.688-6.116-.71-6.29-.132-1.065-1.249-9.689-1.613-3.871-.199 3.192-1.242 12.703-.548 9.58.548-2.464.744-5.023 1.129-7.516.205-1.324.325-4.578 1.161-1.677.465 1.613.921 3.266 1.129 4.935.326 2.604.032-5.247.032-7.87 0-1.802.145-7.163.452-5.387.553 3.196.535 6.576.71 9.806.004.076.249 5.677.58 5.677.005 0-.007-5.702 0-6.129.013-.709 1.162 12.758 1.162 4.161v-13.644c0-2.085.561 3.331.58 3.483.397 3.198.357 6.383.613 9.581.22 2.742.549-1.045.549-1.71 0-1.274-.67-8.018-.452-6.709.495 2.971.488 6.002.742 8.999.602 7.107.596-2.303.548-4.161-.006-.235-.283-8.255-.258-7.032.041 1.966.337 3.925.581 5.871"/><path stroke="#121A2C" stroke-linecap="round" stroke-width="6" d="M253.746 224.798c0-3.048-.108-1.406.29.903.378 2.191.27 5.252 1.323 7.226.993 1.862-.188-4.217-.323-6.323-.035-.551-1.213-7.273-.387-4.322.757 2.702 1.53 5.385 1.968 8.161.063.399.613 4.149.613 1.968v-9.548c0-1.617.214 5.038.322 5.935.055.449.611 6.322 1.129 6.322.506 0-.681-9.435-.742-10.193-.266-3.359.766.702.904 1.613.536 3.54.739 1.077-.226-.903-.216-.443-2.668-3.815-1.387-3.032.536.327 2.036 1.913 1.871 1.838-1.317-.599-2.551-1.186-3.807-1.903-.832-.476 1.884.48 2.71.968a19.3 19.3 0 0 1 3.742 2.903c1.439 1.439-2.511-1.414-2.903-1.807-1.655-1.654 1.189-.663 1.871-.322 1.212.606 4.035 3.621 3.032 2.709-1.694-1.539-3.515-2.812-5.29-4.257-1.448-1.179 2.215.704 2.58.967 4.987 3.591.376 3.195.516 1.097.06-.897 2.502 1.599 2.645 1.742.695.694 3.147 1.729 2.194 1.968-.784.196-2.615-2.284-2.355-2.387.72-.289 3.564 3.241 4.097 3.774 1.11 1.11-.806-1.189-.936-1.775-.014-.063 1.516 1.211 1.516 1.968 0 1.32-1.696-2.023-2.548-3.032-1.208-1.43-2.433-2.842-3.581-4.322-.888-1.147 1.573 1.421 1.871 1.774.895 1.057 1.63 3.246 2.645 3.903 1.274.824 1.742 2.316 1.742 3.613 0 2.943.581-1.29.581-.129 0 .965-.479 5.019-.258 3.838.23-1.227 1.253-3.906.71-5.129-.584-1.312-1.673-2.517-2.452-3.742-1.659-2.606-.566-2.086-.032.581.775 3.878-1.584 7.081-3.065 10.58-.282.667-.695-3.889-.709-4.451-.118-4.466-.767 1.036-.903 2.322-.06.56-1.106 8.266-.517 4.226.483-3.311 1.379-13.228.387-10.032-1.12 3.609-.567 7.936-1.29 11.677-.07.363-.462 2.217-.548.484-.161-3.221.072-6.454-.065-9.677-.158-3.73-.898 3.214-.903 3.258-.4 3.604-.729 14.314-1.516 10.774-.619-2.785-.485-5.697-.903-8.516-.235-1.583-.619 4.957-.71 5.935-.431 4.637-.311-3.038-.258-3.677.065-.775 1.289-11.211.581-6.71-.64 4.066-1.484 16.374-1.484 12.258 0-2.367-.04-4.731-.129-7.096-.069-1.832.566-7.142-.452-8.839-.661-1.102-.407 2.538-.613 3.806-.4 2.467-.76 4.932-1 7.42-.427 4.446-.111-5.778-.161-7-.156-3.826-.774 1.11-.871 1.935-.107.918-1.196 12.258-.967 12.226.559-.08-.501-25.028-1-8.807-.025.791.832 6.707-.129 3.904-.262-.764-2.042-7.086-2.807-3.936-.792 3.263-.771 7.058 0 10.322.087.368 1.397 3.063 1.129 1.323-.455-2.96-4.256-5.027-1.129-.613.418.59-5.225-7.422-5.225-3.677 0 1.471.195 2.366 6.064 4.322.759.253 7.29.944 7.29-1.129 0-1.064.612-6.005.581-4.548-.05 2.27-.393 4.515-.581 6.774-.127 1.528-.311-3.176-1.161-4.452-2.395-3.592 1.342 4.729-.258.194-.372-1.052-4.956-6.562-5.903-5.709-.741.666 1.307 6.228.935 5.322-.522-1.273-1.742-5.118-1.742-3.742 0 1.389.93 2.022 1.968 2.645 1.302.781-2.439-1.862-3.839-2.451-1.238-.522-.693.774-1.161.774-.243 0-.864-1.244.387-.065 1.097 1.034 2.966 3.162 4.645 3.162 1.691 0 4.846-2.653 6-3.807.393-.393 4.177-5.207 5.322-3.871 2.068 2.413-1.086 7.783 1.903 2.387.163-.293 2.146-4.183 2.194-2.516.043 1.522-.621 4.694.645 1.71 2.681-6.32 2.052-.838.29 1.903-.234.364.936-2.671 1.613-3.419 1.365-1.508-1.615 5.77-2.29 6.838-3.493 5.531 1.8-5.886-.613-.806-.26.548-4.305 7.781-3.129 4.032.258-.822 1.582-3.596 1.032-4.451-.299-.466-3.029 6.502-3.258 7.225-.077.244.42-2.565.42-3.29 0-1.455-.539.309-.516.903.143 3.73.236-4.69-1.452-2.064-.565.878-1.123 2.337-.548 3.322.58.994 1.165.032.129.032-1.526 0-.354 1.645.709.581"/></svg>